Coordinates
version=1
nRows=16
nColumns=42
inDegrees=yes

Units are S.I. units (second, meters, Newtons, ...)
If the header above contains a line with 'inDegrees', this indicates whether rotational values are in degrees (yes) or radians (no).

endheader
time	pelvis_tilt	pelvis_list	pelvis_rotation	pelvis_tx	pelvis_ty	pelvis_tz	hip_flexion_r	hip_adduction_r	hip_rotation_r	knee_angle_r	knee_adduction_r	knee_angle_r_beta	ankle_angle_r	subtalar_angle_r	mtp_angle_r	hip_flexion_l	hip_adduction_l	hip_rotation_l	knee_angle_l	knee_adduction_l	knee_angle_l_beta	ankle_angle_l	subtalar_angle_l	mtp_angle_l	lumbar_extension	lumbar_bending	lumbar_rotation	arm_flex_r	arm_add_r	arm_rot_r	elbow_flex_r	pro_sup_r	wrist_flex_r	wrist_dev_r	arm_flex_l	arm_add_l	arm_rot_l	elbow_flex_l	pro_sup_l	wrist_flex_l	wrist_dev_l
      2.19000000	     -0.10911046	      1.79186434	     -3.52332781	      0.08130503	      0.97981319	      0.29259207	      4.05915220	     -9.24059403	      2.52753994	     52.08426069	      7.02481560	      0.90904184	      2.42421609	      4.59291973	     -7.50865618	      6.51270013	      2.05466994	    -11.50301644	      5.10985887	      0.61656104	      0.08918386	      2.28172958	     16.93484276	     -7.50865618	     -6.25219184	     -3.96765340	     -0.71728834	     -2.77004201	    -14.61733112	     14.44111140	     31.86998116	     90.00000001	      0.00000000	      0.00000000	     -4.60279978	    -15.64049088	     17.00772325	     28.39891556	     90.00000001	      0.00000000	      0.00000000
      2.20000000	      0.17131653	      1.50808575	     -3.15072234	      0.09064284	      0.98087498	      0.29082666	      5.19113061	     -9.05856981	      2.42696128	     53.21248744	      7.32713824	      0.92873311	      2.93531449	      4.62601297	     -7.50857476	      5.58428159	      1.87450982	    -11.47028279	      5.11549348	      0.74217747	      0.08928220	      2.58726110	     17.08307665	     -7.50857476	     -6.61592098	     -3.51918068	     -1.31814624	     -3.12597019	    -14.57499787	     14.44155965	     31.74590290	     90.00000001	      0.00000000	      0.00000000	     -3.77214519	    -15.65903961	     17.08408079	     28.58504652	     90.00000001	      0.00000000	      0.00000000
      2.21000000	      0.21672861	      1.46187230	     -2.81896700	      0.10009101	      0.98142670	      0.28927271	      6.68902241	     -8.99455466	      1.43633199	     54.34185708	      6.61798841	      0.94844433	      4.43080852	      6.37426757	     -7.50811660	      4.73894828	      2.02008261	    -10.87127968	      4.74807327	      0.71876575	      0.08286951	      3.24131175	     17.57062352	     -7.50811660	     -6.63869693	     -3.34259463	     -1.69278685	     -3.68454134	    -14.42725699	     14.15677800	     31.58888664	     90.00000001	      0.00000000	      0.00000000	     -2.78942557	    -15.98670379	     18.67753490	     28.63883510	     90.00000001	      0.00000000	      0.00000000
      2.22000000	      0.43770273	      1.22893072	     -2.48619022	      0.10930080	      0.98230046	      0.28754879	      7.86480987	     -8.82845459	      1.31301634	     54.99173867	      6.90325404	      0.95978690	      4.90672873	      6.44866950	     -7.50803578	      3.91917177	      1.90353918	    -10.77052201	      4.80429722	      0.76845076	      0.08385080	      3.56542353	     17.69958607	     -7.50803578	     -6.91490148	     -2.93050343	     -2.16951477	     -4.08257354	    -14.39667094	     14.14547906	     31.44197854	     90.00000001	      0.00000000	      0.00000000	     -1.90743246	    -15.99085509	     18.77465223	     28.84466482	     90.00000001	      0.00000000	      0.00000000
      2.23000000	      0.50171680	      1.00009302	     -2.14615479	      0.11856018	      0.98293295	      0.28609230	      9.14615404	     -8.53885602	      1.04412428	     55.33240646	      6.94576476	      0.96573268	      5.92983461	      6.80336196	     -7.50791446	      3.12184637	      1.83090549	    -10.20896757	      4.55271941	      0.73080257	      0.07945994	      4.27581131	     18.13555480	     -7.50791446	     -6.98238658	     -2.53953286	     -2.53139286	     -4.60706594	    -14.28928191	     14.04605746	     31.25670281	     90.00000001	      0.00000000	      0.00000000	     -0.87776799	    -16.04728715	     19.27552916	     28.74702150	     90.00000001	      0.00000000	      0.00000000
      2.24000000	      0.72197008	      0.80845143	     -1.62243406	      0.12799588	      0.98362338	      0.28437543	     10.16771406	     -8.39820980	     -0.05129712	     55.40372740	      6.57664599	      0.96697746	      6.80141030	      8.33821632	     -7.50749277	      2.23137629	      1.80116369	     -9.68198974	      4.44480688	      0.68716138	      0.07757651	      4.67994889	     18.23014744	     -7.50749277	     -7.20183157	     -2.16198625	     -2.99911123	     -5.19464448	    -14.07504146	     13.26084659	     31.12544145	     90.00000001	      0.00000000	      0.00000000	      0.12019793	    -16.45347160	     21.28226195	     29.09388743	     90.00000001	      0.00000000	      0.00000000
      2.25000000	      0.78908239	      0.62938936	     -1.29732978	      0.13712652	      0.98410572	      0.28279189	     11.37053021	     -8.22370778	     -0.25958548	     55.23438126	      6.83150491	      0.96402181	      7.42286752	      8.35201275	     -7.50738674	      1.53838942	      1.78151854	     -9.38422498	      4.37174002	      0.59425581	      0.07630126	      5.18110803	     18.47112586	     -7.50738674	     -7.26945416	     -1.79890209	     -3.34328363	     -5.68708492	    -14.00345073	     13.19625123	     30.95768583	     90.00000001	      0.00000000	      0.00000000	      1.06610023	    -16.47482462	     21.50671585	     29.24385271	     90.00000001	      0.00000000	      0.00000000
      2.26000000	      0.91051263	      0.59669946	     -1.02619598	      0.14595410	      0.98456855	      0.28132387	     12.54381548	     -8.15866925	     -0.43587980	     54.87607915	      6.99775149	      0.95776826	      7.53096328	      8.36178685	     -7.50733238	      0.96525520	      1.85463281	     -9.55113142	      4.61554934	      0.57427523	      0.08055653	      5.29592640	     18.38021163	     -7.50733238	     -7.44261964	     -1.61736328	     -3.70514358	     -6.11549363	    -13.93183649	     13.20495033	     30.87977801	     90.00000001	      0.00000000	      0.00000000	      1.95011486	    -16.55237498	     21.45950556	     29.62348283	     90.00000001	      0.00000000	      0.00000000
      2.27000000	      1.25948516	      0.05825213	     -0.37891313	      0.15580210	      0.98527570	      0.27976209	     12.99118035	     -7.59325703	     -1.41450959	     53.80136363	      6.99490296	      0.93901094	      8.39649367	      8.55349791	     -7.50699958	     -0.26495112	      1.40979451	     -8.56359354	      4.16848911	      0.52941740	      0.07275386	      6.07697119	     18.92889795	     -7.50699958	     -7.72911745	     -0.83906275	     -4.09921168	     -6.78600461	    -13.67852301	     12.19368869	     30.66734084	     90.00000001	      0.00000000	      0.00000000	      3.02074007	    -16.78882773	     23.24564050	     29.78902323	     90.00000001	      0.00000000	      0.00000000
      2.28000000	      1.25088910	      0.05798514	     -0.15560510	      0.16497390	      0.98534440	      0.27826189	     14.13127575	     -7.57226808	     -1.73232654	     52.90106030	      7.10652787	      0.92329768	      8.70867515	      8.45079101	     -7.50692497	     -0.82955842	      1.56438173	     -8.56971732	      4.19080767	      0.41712634	      0.07314339	      6.42068163	     18.99244957	     -7.50692497	     -7.67518148	     -0.67394607	     -4.29851130	     -7.32121762	    -13.59414320	     12.15098388	     30.51279139	     90.00000001	      0.00000000	      0.00000000	      3.86548435	    -16.81950657	     23.29211630	     30.17378640	     90.00000001	      0.00000000	      0.00000000
      2.29000000	      1.61988956	     -0.35001688	      0.33388319	      0.17440056	      0.98580813	      0.27698905	     14.54890921	     -7.05870920	     -2.35156527	     51.44567370	      7.21158217	      0.89789639	      9.08788891	      8.00173575	     -7.50660706	     -1.98988915	      1.18041891	     -7.96677635	      3.86742477	      0.42431243	      0.06749930	      6.98390432	     19.39963962	     -7.50660706	     -8.03929118	     -0.06827865	     -4.64971387	     -7.82731682	    -13.34773318	     11.32510436	     30.31926289	     90.00000001	      0.00000000	      0.00000000	      4.79880778	    -17.04487232	     24.27807635	     30.61501034	     90.00000001	      0.00000000	      0.00000000
      2.30000000	      1.55573128	     -0.26346390	      0.50578084	      0.18361281	      0.98550614	      0.27563217	     15.61435824	     -7.09058021	     -2.74535453	     50.08524506	      7.21669836	      0.87415243	      9.30667332	      7.84748610	     -7.50653407	     -2.51284118	      1.41256143	     -8.01451242	      3.86990506	      0.30452018	      0.06754259	      7.34044967	     19.45768373	     -7.50653407	     -7.91103989	     -0.01694722	     -4.80502839	     -8.35278434	    -13.24560615	     11.27981955	     30.18928016	     90.00000001	      0.00000000	      0.00000000	      5.58244971	    -17.08857514	     24.26431923	     31.05856518	     90.00000001	      0.00000000	      0.00000000
      2.31000000	      1.91072866	     -0.61629924	      0.96034573	      0.19306450	      0.98566998	      0.27439124	     15.88133842	     -6.62454626	     -3.32364080	     48.13934572	      7.35848033	      0.84019008	      9.51714045	      7.17369578	     -7.50633125	     -3.66287041	      1.05033188	     -7.46265583	      3.53534550	      0.35023464	      0.06170342	      7.91034614	     19.94489772	     -7.50633125	     -8.25229636	      0.54032332	     -5.15816527	     -8.80230009	    -13.04726155	     10.72925162	     29.98938666	     90.00000001	      0.00000000	      0.00000000	      6.36091719	    -17.23813198	     24.63454337	     31.62902711	     90.00000001	      0.00000000	      0.00000000
      2.32000000	      1.81462935	     -0.39129314	      1.04834394	      0.20228536	      0.98496040	      0.27323113	     16.89858512	     -6.75132961	     -3.81665471	     46.47623312	      7.19913937	      0.81116329	      9.56959226	      7.01731899	     -7.50627221	     -4.12901954	      1.39983965	     -7.68825182	      3.60474706	      0.27221974	      0.06291470	      8.22475321	     19.87911034	     -7.50627221	     -8.10049513	      0.41741928	     -5.18054089	     -9.35443468	    -12.92952995	     10.71820942	     29.84307100	     90.00000001	      0.00000000	      0.00000000	      7.11748485	    -17.29928076	     24.55080787	     32.14543824	     90.00000001	      0.00000000	      0.00000000
      2.33000000	      1.72047744	     -0.18849059	      1.15146566	      0.21166712	      0.98409876	      0.27208728	     17.78672520	     -6.83428890	     -4.32708151	     44.55405855	      7.03788301	      0.77761502	      9.62404579	      6.84368530	     -7.50621394	     -4.66340908	      1.73425957	     -7.77221919	      3.56477363	      0.16860191	      0.06221704	      8.64678387	     19.93658785	     -7.50621394	     -7.92170274	      0.32315552	     -5.25301949	     -9.86010331	    -12.80057799	     10.67824866	     29.69371454	     90.00000001	      0.00000000	      0.00000000	      7.77024321	    -17.37652398	     24.48121417	     32.70495930	     90.00000001	      0.00000000	      0.00000000
      2.34000000	      2.56557731	     -0.92113469	      1.66747600	      0.22165497	      0.98450068	      0.27127985	     16.97359426	     -5.80085556	     -4.89196220	     41.48057812	      7.19416798	      0.72397266	      9.34587560	      5.57559655	     -7.50597550	     -6.49103510	      0.83562647	     -7.17552353	      3.00682563	      0.31770986	      0.05247901	      9.39135893	     20.59965964	     -7.50597550	     -8.77624240	      1.29605482	     -5.70626356	    -10.09213249	    -12.52603519	      9.93509718	     29.32330277	     90.00000001	      0.00000000	      0.00000000	      8.31833955	    -17.60757260	     24.75231430	     33.69445785	     90.00000001	      0.00000000	      0.00000000
